<svg width="110" height="24" viewBox="0 0 110 24" fill="none" xmlns="http://www.w3.org/2000/svg">
<path fill-rule="evenodd" clip-rule="evenodd" d="M67.0904 14.0327H65.0587V23.8276H67.1027V14.0348L67.0904 14.0327ZM56.474 14.0327H54.43V23.8276H56.474V19.7746H60.5149V23.8276L62.5589 23.8276V14.0327H61.5635C60.9889 14.0327 60.5231 14.5061 60.5231 15.0901V17.88H56.474V14.0327ZM41.6571 14.0327H39.6315V23.8276H41.6755L41.6571 14.0327ZM33.7734 15.9481C35.1899 15.9481 35.8644 16.3635 35.8644 17.3586C35.8644 18.3537 35.1633 18.8128 33.7734 18.8128H32.2731V15.9481H33.7734ZM34.1311 14.0327H30.2291V23.8276H32.2731V20.726H34.1291C35.243 20.726 36.1506 20.4186 36.8516 19.7891C37.548 19.1667 37.9316 18.2588 37.8961 17.3171C37.8961 16.3088 37.5555 15.5125 36.8741 14.9281C36.1853 14.3256 35.2798 14.0327 34.1372 14.0327H34.1311ZM36.0586 7.32901C36.0586 8.15996 35.4679 8.4591 34.3294 8.4591H32.2731V6.24669H34.3743C35.4883 6.24669 36.0504 6.61024 36.0504 7.32278L36.0586 7.32901ZM35.8174 3.49624C35.8174 4.16724 35.2819 4.5017 34.2231 4.5017H32.2731V2.50741H34.1413C35.3371 2.50741 35.8174 2.77331 35.8174 3.51286V3.49624ZM36.8905 5.28694C37.5177 4.82817 37.8866 4.08839 37.8798 3.30305C37.8798 1.55805 36.5737 0.602453 34.5542 0.602453L30.2291 0.602453V10.3724H34.7913C35.7949 10.3724 36.5921 10.1065 37.195 9.59128C37.8011 9.08036 38.1413 8.31379 38.1169 7.5139C38.1169 6.60608 37.7081 5.86653 36.8905 5.28071V5.28694ZM44.862 6.60608H42.4706L43.6663 3.40899L44.862 6.60608ZM46.2928 10.3765H48.4084L44.8988 1.26098C44.7436 0.851488 44.3556 0.582003 43.9239 0.583748L42.6975 0.583748L38.9243 10.3724H41.0398L41.7961 8.44456H45.5202L46.2928 10.3765ZM48.5658 13.8831C47.1207 13.8831 45.9249 14.3443 44.9642 15.2812C44.0036 16.2181 43.5151 17.4292 43.5151 18.952C43.5151 20.4747 43.9974 21.6754 44.9602 22.5978C45.9229 23.5201 47.1595 23.9813 48.6393 23.9813C50.2623 23.9813 51.5684 23.3664 52.5577 22.1366L51.1964 20.6699C50.6051 21.5458 49.6188 22.0591 48.5739 22.0348C47.7911 22.0584 47.0323 21.7586 46.4707 21.2038C45.9086 20.645 45.6183 19.8785 45.6183 18.9187C45.6183 17.959 45.9086 17.2153 46.4707 16.671C46.9996 16.1354 47.7169 15.8363 48.4636 15.84C49.1632 15.8347 49.8445 16.0673 50.3992 16.5006C50.8147 16.8219 51.4008 16.7773 51.7646 16.3968L52.3962 15.7424C51.4792 14.543 50.0557 13.8582 48.5617 13.8977L48.5658 13.8831ZM56.4331 10.3724H58.2911V0.583755L56.2471 0.583755V7.21683L52.6701 1.09895C52.4836 0.779128 52.1447 0.58323 51.7789 0.583755L49.9087 0.583755V10.3724H51.9526V3.76838L55.5378 9.85926C55.726 10.1771 56.064 10.3717 56.429 10.3724H56.4331ZM63.0985 7.74656C62.5364 7.18775 62.2482 6.42119 62.2482 5.46144C62.2482 4.5017 62.5364 3.75799 63.0985 3.21372C63.6275 2.67814 64.3448 2.37907 65.0914 2.38277C65.799 2.37791 66.4874 2.61578 67.0455 3.05792C67.4593 3.36782 68.0352 3.31711 68.3904 2.93951L69.022 2.28513C68.108 1.08301 66.686 0.394314 65.1916 0.43003C63.7485 0.43003 62.5548 0.891209 61.5921 1.82603C60.6294 2.76085 60.149 3.97612 60.149 5.49884C60.149 7.02156 60.6314 8.22228 61.5921 9.14464C62.5528 10.067 63.7914 10.5261 65.2611 10.5261C66.8813 10.5261 68.1867 9.91189 69.1774 8.68346L67.816 7.21683C67.2286 8.09106 66.2473 8.60571 65.2059 8.58582C64.423 8.60946 63.6642 8.30966 63.1026 7.75487L63.0985 7.74656ZM71.4727 14.041H69.6025V23.8359H71.6465V17.2194L75.2337 23.3124C75.4205 23.6319 75.7592 23.8277 76.1249 23.8276H77.9829V14.0327H75.9532V20.6803L72.3639 14.5562C72.1768 14.237 71.8383 14.0413 71.4727 14.041ZM78.0585 5.47183C78.0815 6.28139 77.8018 7.06974 77.2756 7.67801C76.7523 8.28133 75.9874 8.61003 75.1969 8.57128C74.3037 8.57128 73.6026 8.27837 73.0814 7.67801C72.5545 7.07017 72.2747 6.28153 72.2985 5.47183C72.2768 4.66623 72.5565 3.88224 73.0814 3.27812C73.6218 2.67698 74.3964 2.34991 75.1969 2.38485C75.9769 2.36464 76.7256 2.69715 77.2409 3.29266C77.7796 3.8848 78.0725 4.66549 78.0585 5.47183ZM78.6717 9.10102C79.6314 8.14998 80.1549 6.83354 80.1147 5.47183C80.1548 4.11745 79.6308 2.80873 78.6717 1.86758C77.7357 0.917625 76.458 0.398213 75.1356 0.43003C73.8138 0.404833 72.5389 0.928409 71.6055 1.87988C70.672 2.83136 70.1605 4.12849 70.1891 5.47183C70.1518 6.81886 70.6601 8.12243 71.5951 9.07785C72.5301 10.0333 73.81 10.5568 75.1356 10.5261C76.4554 10.5566 77.7311 10.0425 78.6717 9.10102ZM82.8026 21.2038C82.2384 20.6409 81.9421 19.8743 81.9421 18.9187C81.9421 17.9631 82.2303 17.2153 82.7944 16.671C83.3229 16.1346 84.0405 15.8354 84.7873 15.84C85.4951 15.8339 86.1839 16.0719 86.7414 16.5152C87.1556 16.8263 87.7329 16.7756 88.0883 16.3968L88.7199 15.7424C87.8025 14.5424 86.3781 13.8575 84.8834 13.8977C83.4403 13.8977 82.2446 14.3589 81.2819 15.2958C80.3191 16.2327 79.8388 17.4479 79.8388 18.9706C79.8388 20.4934 80.3191 21.6941 81.2819 22.6164C82.2446 23.5388 83.4812 24 84.961 24C86.5812 24 87.8873 23.3851 88.8794 22.1553L87.5181 20.6886C86.9243 21.5539 85.9435 22.0594 84.9058 22.0348C84.123 22.0584 83.3642 21.7586 82.8026 21.2038ZM96.8448 23.8317H98.8786V14.0327H97.8852C97.3106 14.0327 96.8448 14.5061 96.8448 15.0901V17.88H92.8038V14.0327H90.7598V23.8276H92.8038V19.7746H96.8448V23.8317ZM106.452 20.0592H104.06L105.256 16.86L106.452 20.0592ZM110 23.8317L106.49 14.7058C106.335 14.3004 105.952 14.0331 105.524 14.0327H104.281L100.514 23.8276H102.631L103.388 21.8998H107.112L107.882 23.8276L110 23.8317Z" fill="#0F265C"/>
<path fill-rule="evenodd" clip-rule="evenodd" d="M23.5115 0V23.9999H7.87214C3.51739 23.9999 9.91821e-05 20.4096 9.91821e-05 15.9643L9.91821e-05 0L23.5115 0ZM19.5965 3.99643L11.7663 3.99643V7.60818H16.0582V11.9893H19.5965V3.99643Z" fill="#FFDD00"/>
<path fill-rule="evenodd" clip-rule="evenodd" d="M19.5978 4L11.7676 4V7.61175H16.0596V11.9929H19.5978V4Z" fill="#0F265C"/>
</svg>
